<svg width="366" height="120" viewBox="0 0 366 120" fill="none" xmlns="http://www.w3.org/2000/svg">
<path d="M366 0H0V120H366V0Z" fill="#0083BE"/>
<path d="M133.433 74.407H150.646V79.667H126.844V41.75H133.433V74.407ZM161.818 79.667H155.488V51.49H161.818V79.667ZM155.099 44.172C155.085 43.7272 155.159 43.284 155.318 42.8682C155.476 42.4524 155.716 42.0723 156.023 41.75C156.373 41.4148 156.788 41.156 157.243 40.9901C157.698 40.8241 158.183 40.7546 158.666 40.786C159.151 40.7555 159.637 40.8253 160.094 40.9912C160.551 41.157 160.969 41.4154 161.322 41.75C161.632 42.0704 161.876 42.4498 162.037 42.8659C162.198 43.2819 162.274 43.7261 162.26 44.172C162.273 44.6119 162.197 45.0499 162.036 45.4595C161.875 45.869 161.632 46.2417 161.323 46.555C160.968 46.8859 160.55 47.141 160.093 47.3045C159.636 47.468 159.151 47.5366 158.667 47.506C158.185 47.5375 157.701 47.4692 157.246 47.3056C156.792 47.142 156.376 46.8865 156.024 46.555C155.718 46.2399 155.479 45.8667 155.32 45.4573C155.161 45.048 155.086 44.6109 155.099 44.172V44.172ZM174.578 51.49L174.76 54.745C175.742 53.5245 176.993 52.5483 178.416 51.8931C179.839 51.238 181.394 50.9216 182.96 50.969C188.827 50.969 191.813 54.3283 191.918 61.047V79.667H185.594V61.412C185.709 59.9909 185.296 58.5772 184.435 57.441C183.931 56.9703 183.332 56.6119 182.679 56.3897C182.026 56.1675 181.333 56.0865 180.646 56.152C179.462 56.1137 178.293 56.4208 177.281 57.0359C176.268 57.6511 175.457 58.5476 174.946 59.616V79.667H168.615V51.49H174.578ZM207.521 67.584L204.709 70.475V79.667H198.381V39.667H204.709V62.74L206.688 60.267L214.474 51.491H222.074L211.61 63.235L223.198 79.667H215.881L207.521 67.584ZM238.094 80.184C236.295 80.2569 234.501 79.9581 232.823 79.3062C231.144 78.6542 229.619 77.6632 228.341 76.395C225.85 73.869 224.604 70.5053 224.604 66.304V65.523C224.559 62.9181 225.116 60.338 226.232 57.984C227.235 55.863 228.82 54.0705 230.802 52.815C232.767 51.5814 235.045 50.9395 237.365 50.966C241.202 50.966 244.166 52.19 246.258 54.638C248.35 57.086 249.396 60.5497 249.396 65.029V67.581H230.988C231.065 69.6441 231.895 71.6076 233.319 73.102C233.993 73.772 234.797 74.2977 235.681 74.6468C236.566 74.996 237.512 75.1614 238.462 75.133C239.838 75.1589 241.2 74.8529 242.433 74.2409C243.666 73.6289 244.734 72.7288 245.545 71.617L248.956 74.872C247.826 76.5574 246.266 77.9104 244.438 78.791C242.46 79.7425 240.288 80.2208 238.094 80.188V80.184ZM237.339 56.043C236.546 56.0147 235.758 56.1637 235.03 56.4791C234.302 56.7945 233.654 57.2683 233.133 57.866C231.966 59.3199 231.254 61.0867 231.089 62.944H243.146V62.475C243.143 60.7292 242.546 59.0365 241.453 57.675C240.926 57.1226 240.285 56.6911 239.574 56.41C238.864 56.129 238.102 56.0052 237.339 56.047V56.043ZM253.12 65.367C253.12 61.027 254.127 57.5417 256.141 54.911C257.07 53.6459 258.293 52.6258 259.704 51.9386C261.115 51.2513 262.672 50.9175 264.241 50.966C265.604 50.9177 266.961 51.173 268.213 51.7135C269.465 52.2539 270.581 53.066 271.481 54.091V39.667H277.809V79.667H272.08L271.768 76.75C270.857 77.8705 269.699 78.7642 268.384 79.3608C267.069 79.9574 265.633 80.2406 264.19 80.188C262.632 80.2216 261.09 79.8766 259.695 79.1827C258.3 78.4887 257.095 77.4666 256.182 76.204C254.141 73.5473 253.12 69.935 253.12 65.367ZM259.448 65.914C259.314 68.2647 259.89 70.6013 261.102 72.62C261.611 73.3927 262.312 74.0206 263.135 74.4428C263.959 74.8649 264.877 75.0668 265.802 75.029C266.985 75.0789 268.156 74.7764 269.167 74.1596C270.178 73.5429 270.982 72.6398 271.479 71.565V59.537C270.984 58.4778 270.184 57.5901 269.182 56.9873C268.181 56.3844 267.022 56.0936 265.854 56.152C264.921 56.1138 263.994 56.318 263.163 56.7447C262.332 57.1715 261.626 57.8062 261.114 58.587C260.003 60.2097 259.448 62.653 259.448 65.917V65.914ZM291.974 79.667H285.412V41.75H291.975L291.974 79.667ZM305.333 51.49L305.515 54.745C306.497 53.5245 307.748 52.5483 309.171 51.8931C310.594 51.238 312.149 50.9216 313.715 50.969C319.582 50.969 322.568 54.3283 322.673 61.047V79.667H316.345V61.412C316.46 59.9909 316.047 58.5772 315.186 57.441C314.682 56.9703 314.083 56.6119 313.43 56.3897C312.777 56.1675 312.084 56.0865 311.397 56.152C310.213 56.1137 309.044 56.4208 308.032 57.0359C307.019 57.6511 306.208 58.5476 305.697 59.616V79.667H299.369V51.49H305.333Z" fill="white"/>
<path d="M107.323 26.001H45.323C44.2184 26.001 43.323 26.8964 43.323 28.001V91.001C43.323 92.1055 44.2184 93.001 45.323 93.001H107.323C108.428 93.001 109.323 92.1055 109.323 91.001V28.001C109.323 26.8964 108.428 26.001 107.323 26.001Z" fill="white"/>
<path d="M63.218 48.85H52.119V82.457H63.218V48.85Z" fill="#0083BE"/>
<path d="M57.744 32.645C53.946 32.645 51.465 35.158 51.465 38.452C51.457 39.2446 51.6127 40.0304 51.9224 40.7601C52.232 41.4899 52.6889 42.1479 53.2644 42.6929C53.84 43.238 54.5219 43.6584 55.2674 43.9279C56.0129 44.1973 56.806 44.31 57.597 44.259H57.665C61.535 44.259 63.944 41.677 63.944 38.452C63.876 35.158 61.539 32.645 57.744 32.645Z" fill="#0083BE"/>
<path d="M90.459 48.06C88.4438 47.9804 86.4455 48.4558 84.6821 49.4344C82.9187 50.4129 81.4578 51.8569 80.459 53.609V48.85H69.359C69.506 52.003 69.359 82.46 69.359 82.46H80.459V63.689C80.4159 62.7653 80.5399 61.8415 80.825 60.962C81.2363 59.7765 82.0044 58.7475 83.0239 58.0161C84.0434 57.2846 85.2643 56.8867 86.519 56.877C90.533 56.877 92.141 59.96 92.141 64.477V82.46H103.241V63.185C103.233 52.86 97.759 48.06 90.459 48.06Z" fill="#0083BE"/>
</svg>
